<svg width="796" height="493" viewBox="0 0 796 493" fill="none" xmlns="http://www.w3.org/2000/svg">
<path d="M599.9 405.1C598.4 401 599 396.7 599.3 392.4C599.3 391.8 599.3 391.2 599 390.6C598.5 389.9 597.5 389.7 596.7 389.5C589.8 387.9 584.2 380.8 577.3 382.3C573.6 383.1 570.9 386.3 568.5 389.3C565 393.8 561.5 398.4 558.1 403.1C555.1 403.2 552 403.5 548.9 403.8C536.5 404.9 524 405.1 511.7 403.1C507.1 402.3 502.5 401.3 497.9 401C496.6 400.9 495.3 400.9 493.9 401C486.7 401.5 483 406.3 476.8 408.9C469.8 411.9 461.8 411.2 454.6 413.5C454.1 413.7 453.6 413.9 453.3 414.4C453.1 414.7 453.2 415.2 453.4 415.5C454 416.8 455.5 417.2 456.8 417.6C465.2 419.6 473.5 421.6 482 423C489 424.1 496.1 421.7 503.2 422.5C509.9 423.3 516.4 425.8 523.1 427.2C536.4 430.1 549.7 433 562.9 435.9C567.1 436.8 571.4 437.7 575.6 437.3C579.3 436.9 582.7 434.7 585.3 431.6C589.5 427.4 593.3 422.8 596.6 417.8C598 415.8 599.2 413.7 600.1 411.4C601.3 408.5 600.9 407.7 599.9 405.1Z" fill="#CF3143"/>
<g opacity="0.37">
<path opacity="0.37" d="M599.9 405.1C598.4 401 599 396.7 599.3 392.4C599.3 391.8 599.3 391.2 599 390.6C598.5 389.9 597.5 389.7 596.7 389.5C589.8 387.9 584.2 380.8 577.3 382.3C573.6 383.1 570.9 386.3 568.5 389.3C565 393.8 561.5 398.4 558.1 403.1C555.1 403.2 552 403.5 548.9 403.8C536.5 404.9 524 405.1 511.7 403.1C507.1 402.3 502.5 401.3 497.9 401C496.6 400.9 495.3 400.9 493.9 401C486.7 401.5 483 406.3 476.8 408.9C473.9 410.1 470.8 410.7 467.7 411.2C475.1 411.6 482.4 412.3 489.6 413.5C492 413.5 494.4 413.4 496.8 413.5C510.4 413.8 523.7 416.1 537.2 417.8C545 418.8 551.2 418.1 558.8 416.7C565.1 415.5 571.1 415.8 577.1 418.4C581.7 420.5 587 422.6 591.3 425.4C595.5 419.9 602.9 412.9 599.9 405.1Z" fill="#88062F"/>
</g>
<path d="M338.7 418.4C336.4 412.6 332.3 415.6 327.8 415.7C320.7 415.9 313.7 414.6 307.2 411.8C294.8 406.5 285 396.1 272.4 391.7C266.5 389.6 260 388.8 254.8 385.3C251.8 390.5 254.4 396.9 254.7 402.9C255 409.3 252.1 414.4 249 419.6C248.4 420.5 289.2 425.6 293 425.7C307.7 426 324.6 423 338.7 418.4Z" fill="#EA952F"/>
<g opacity="0.14">
<path opacity="0.14" d="M27.7 273.4C26.7 275.8 25.8 278 25.5 280.5C26.3 281.2 27.2 281.8 28.1 282.3C28.5 280.9 29.4 279.5 29.5 278C29.5 276.9 27.5 273.9 27.7 273.4Z" fill="#D44A33"/>
</g>
<path d="M237.2 230.9C237.1 230.7 236.9 230.4 236.7 230.2C235.7 228.7 234.3 227.5 232.6 227C232.5 227 232.3 226.9 232.2 227C232 227.1 231.5 231.6 231.1 232.4C230 234.5 228.8 236.6 228.1 238.9C227.2 242 226.5 245.3 225.9 248.5C225.4 251.5 225.1 254.7 225.8 257.6C226.5 260.5 228.2 263.2 230.1 265.5C233.4 269.5 238.1 273 243.3 272.8C243.7 272.8 244.2 272.7 244.5 272.5C244.9 272.2 245 271.7 245.1 271.3C245.5 269.5 245.4 267.6 245.2 265.8C244.8 260.9 243.8 256 242.7 251.1C241.7 246.9 240.6 242.7 239.4 238.5C238.8 235.9 238.6 233.3 237.2 230.9Z" fill="#1C1A3D"/>
<path d="M605.9 211.9C603.1 217.4 594.3 222.9 588.7 224.8C579.5 227.9 569.8 230.5 560.1 230.6C556.5 230.6 553.9 232.1 550.6 233C546.9 233.9 542.7 234.1 538.9 234.6C531.4 235.6 525.7 237.2 518.8 239.5C510.9 242.1 501 239.9 493 239.2C483.9 238.4 474.5 236.9 466.9 231.8C466 231.2 465.1 230.5 464.5 229.6C463.7 228.3 463.6 226.7 463.4 225.1C462.5 218.4 459.2 212.3 456 206.4C456.6 207.5 483.1 201.2 485.9 200.7C496.2 198.9 506.6 197.3 517 195.8C524.6 194.7 532.2 194.6 539.7 192.7C547 190.9 553.4 185.8 559.7 181.7C576.7 170.7 591.6 158.8 606.1 144.6C608.2 154.6 605.7 163.9 606.2 173.9C606.7 183.8 607.1 193.7 607.3 203.5C607.2 206.3 607.2 209.3 605.9 211.9Z" fill="#7C0530"/>
<path d="M277.6 249C280.7 250.3 282 251 284.5 253.2C286.6 255 289 256.2 291.6 257C293.9 257.6 296.2 257.8 298.4 258.6C300.6 259.4 302.7 260.9 303.3 263.2C294.8 263.1 286.5 264.9 278.1 266C269.7 267.1 261 267.5 253 264.7C248.9 263.3 245.2 261.1 241 260C237.5 259.1 234 259.3 230.8 257.3C226.6 254.6 223.9 250 222.2 245.4C220.7 241.4 219 233.4 221.6 229.6C223.9 226.2 228.9 224.4 231.9 227C236.6 231.1 243.5 235.1 249.6 231.4C253.9 228.8 259.7 238.6 262.7 241.2C267 244.8 272.5 246.8 277.6 249Z" fill="#E9442C"/>
<path d="M237.6 274.4C220.2 273.7 199.5 261.1 185.9 252C169.1 240.7 154.4 226.4 142 210.4C136.2 202.9 131 195.1 126.4 186.8C122.7 180.2 119.3 172.8 120.6 165.3C121 163.1 121.8 160.9 123.2 159.1C125.2 156.6 128.3 155.2 130.6 153C132.9 150.8 134.3 147.8 136 145.2C144.7 131.8 154.3 144.9 161.3 152.2C171.3 162.7 181.2 173.3 190 184.8C197.5 194.6 205.1 206.6 214.6 214.5C220.2 219.2 225.2 223 231.8 226.4C233.1 227.1 234.5 227.8 235.1 229.2C235.8 230.6 235.4 232.4 234.9 233.9C231 247.3 225.2 267.5 244.8 271.6C245.3 272.3 244.9 273.3 244.2 273.8C243.5 274.3 242.7 274.4 241.8 274.4C240.5 274.5 239.1 274.5 237.6 274.4Z" fill="#2B274D"/>
<path d="M210.2 186C220.2 198.2 227.4 212.6 231.1 227.9C228.1 228.8 224.9 228.8 221.9 227.9C219.3 227.1 216.9 225.6 214.7 223.9C203.8 215.4 197.4 201.3 198.3 187.4C198.4 185.2 199 179.4 202 179C204.7 178.8 208.6 184.2 210.2 186Z" fill="#2E2471"/>
<path d="M416.4 258.2C417.7 255.3 420.4 256.4 422.5 256.3C437.5 256.2 452.4 256.3 467.4 256.3C475.4 256.3 478.7 251 475.4 243.7C474.2 241 472.5 238.5 471.4 235.8C467.5 226.2 469.5 217.5 477 211.3C485.6 204.2 496.8 203.3 505.7 209C514.3 214.5 517.2 222.6 514.5 233.1C513.6 236.6 512 239.8 510.3 242.9C506.1 250.7 509.3 256.2 518.1 256.3C533.1 256.3 548 256.4 563 256.2C567.7 256.1 569.7 257 569.7 262.4C569.5 291.5 569.7 320.5 569.7 349.6C569.7 364.7 571.6 384.8 562.7 398.1C552.5 413.2 532.3 409 516.8 409C505.7 409 494.6 409 483.5 409C461.7 409 439.9 409 418.1 409C417.7 409 417.3 408.9 416.9 408.8C416.9 393 416.9 377.2 416.9 361.4C416.9 349.6 422.4 346.4 432.9 352C438 354.7 443.2 356.9 449.1 356.3C461.4 355 470.7 341.7 468.4 329C465.8 315 454.4 307.6 441 311.4C437.8 312.3 434.7 313.7 431.7 315.2C422.8 319.8 417 316.4 416.9 306.2C416.5 290.2 416.5 274.2 416.4 258.2Z" fill="#4374BE"/>
<path d="M473.3 239.5C473 235 473.2 230.4 474.5 226.1C476.9 218.2 483 212.2 490.8 209.6C501.8 205.9 510 212.5 515.1 221.4C514 216.4 510.9 212.2 505.8 208.9C496.9 203.2 485.6 204.1 477.1 211.2C469.6 217.4 467.6 226.1 471.5 235.7C472 237.1 472.6 238.3 473.3 239.5Z" fill="#3858B2"/>
<path d="M451.3 264.4C460.6 262.4 469.9 258.9 476.6 252.1C476.4 252 476.3 251.9 476.1 251.8C474.9 254.5 471.9 256.2 467.4 256.2C452.4 256.2 437.5 256.2 422.5 256.2C420.4 256.2 417.7 255.1 416.4 258.1C416.4 261.4 416.4 264.8 416.4 268.1C428.1 267.3 439.8 266.9 451.3 264.4Z" fill="#3858B2"/>
<path d="M424.9 351.4C424.9 350.6 425 349.9 425.2 349.3C419.6 348.7 416.7 352.8 416.7 361.3C416.7 377.1 416.7 392.9 416.7 408.7C417.1 408.8 417.5 408.9 417.9 408.9C420.6 408.9 423.2 408.9 425.9 408.9C418.3 391.3 426 370 424.9 351.4Z" fill="#3858B2"/>
<path d="M507.9 220.7C507.1 222 506.1 223.1 505 224.1C506.1 222.1 508.5 219.8 510.8 219.6C511.6 219.5 512.4 219.9 512.7 220.7C513 221.5 512.5 222.4 512 223.1C510.7 224.9 509.5 226.8 508.2 228.6C507.7 229.3 507.2 230.1 506.4 230.5C502 232.9 503.8 225 505.3 223.3" fill="#F0A444"/>
<path d="M422.5 256.3C420.4 256.3 417.7 255.2 416.4 258.2C416.5 274.2 416.5 290.2 416.6 306.2C416.7 315.5 421.5 319.1 429.1 316.2C427.1 311.1 424.9 306.1 423.3 300.8C422.1 296.9 420.9 292.3 425.4 289C426.6 288.1 427 286.1 426.3 284.8C423.8 280.2 427.1 278.7 429.9 276.4C433.6 273.3 437.4 270.1 439.9 266.1C442.6 261.8 445.9 258.8 449.9 256.4C440.8 256.3 431.7 256.3 422.5 256.3Z" fill="#F6D937"/>
<path d="M488.2 205.8C484.1 215.7 478.1 224.3 470.1 231.6C470.4 233 470.9 234.4 471.4 235.8C472.2 237.6 473.1 239.4 474.1 241.2C485.2 231.7 493.7 219.5 498.9 206C495.4 205.1 491.8 205 488.2 205.8Z" fill="#F6D937"/>
<path d="M480.7 359.1C479 345.1 478.9 344.9 464.8 346.7C464.5 346.7 464.3 346.8 464 346.8C460.4 351.9 455 355.5 448.9 356.2C443 356.8 437.8 354.6 432.7 351.9C422.2 346.3 416.7 349.5 416.7 361.3C416.7 367.5 416.7 373.8 416.7 380L482.3 372C481.8 367.7 481.2 363.4 480.7 359.1Z" fill="#F6D937"/>
<path d="M242.2 154.8C240.7 143 233 121.3 247.3 114C251.7 111.8 258.4 111.7 263.2 110.8C269.2 109.7 275.1 108.6 281.1 107.6C312 102.4 342.9 98.4 374.1 94.5C388.3 92.7 388.5 92.6 390.6 106.7C392.4 118.8 393.8 130.9 395 143C396 152.9 391 156.5 381.5 153.1C378.9 152.2 376.3 151.4 373.6 150.8C362.7 148.4 354.3 151.9 349.5 160.8C344.7 169.5 346.7 181.5 354.1 188.8C361.8 196.3 370.4 197.5 380 192.3C382.8 190.8 385.3 188.8 388 187.2C394.3 183.5 400.2 185.9 401.1 193C403.2 209 404.8 225.2 406.9 241.2C407.6 246.3 403.8 245.1 401.8 245.4C390.2 247.1 378.4 248.3 366.8 249.7C364.1 250 361.4 250.7 358.7 250.7C354.4 250.8 350.9 251.6 349.3 256.3C347.6 261.2 350.1 264.3 353.3 267.3C358.7 276.5 361.4 285.8 354.6 295.6C353.7 296.5 352.9 297.4 351.9 298.2C344.4 304.4 336.1 307 326.7 303.4C319 300.5 314.2 294.3 313.5 286.1C313.2 282.2 313.8 278.2 314.7 274.4C315.9 269.4 318.6 265 315.7 260C313.5 256.1 309.8 256.4 305.7 257C291.4 259 276.9 260.3 262.6 262.3C256.9 263.1 255.3 260.8 254.8 255.8C252.2 230.1 248.9 204.6 245.5 179C244.4 171 243.3 162.9 242.2 154.8Z" fill="#4374BE"/>
<path d="M352.3 295.1C343.7 300.8 331.7 301.2 323.1 295.3C317.7 291.6 314.6 286.2 313.5 280.3C313.3 282.3 313.2 284.2 313.4 286.2C314 294.4 318.9 300.6 326.6 303.5C336 307.1 344.3 304.5 351.8 298.3C352.8 297.5 353.6 296.5 354.5 295.7C355.5 294.2 356.4 292.8 357 291.3C355.5 292.7 354 293.9 352.3 295.1Z" fill="#3858B2"/>
<path d="M256.4 224.1C255.6 212.3 254.5 200.5 253 188.8C252.5 185 251.4 180 252.3 176.2C253.1 173 255.7 172 256.9 168.9C257.4 167.6 257.5 166.1 257.6 164.7C258 157.8 258.1 150.4 256.7 143.6C255.6 138 251.4 133.5 248.6 128.6C246.3 124.5 245.2 119.9 246 115.2C246 115 246.1 114.9 246.1 114.7C233.4 122.6 240.7 143.4 242.2 154.9C243.2 163 244.3 171.1 245.4 179.2C248.8 204.8 252.1 230.3 254.7 256C255.1 260.4 256.4 262.7 260.5 262.7C258.2 249.9 257.3 237 256.4 224.1Z" fill="#3858B2"/>
<path d="M562.2 193.8C563.2 207.4 564.3 221.1 565.6 234.7C565.9 238.1 564.6 239 561.5 239.2C545.8 240.2 530 241.5 514.3 242.5C506.2 243 502.3 237.3 505.5 229.7C507.1 226 508.6 222.3 509.3 218.4C511.1 208.4 507.1 200.1 498.6 195.6C489.6 190.8 478.1 192.5 470.5 199.8C463.5 206.5 461.9 215.1 466.1 224.1C467.4 226.9 469.3 229.5 470.8 232.3C475 239.9 472 245.7 463.4 246.4C448.7 247.6 434 248.5 419.4 249.9C414.9 250.3 413.2 249.3 413 244.5C412.3 230.2 411.1 215.9 410 201.7C409.2 191.5 403.4 188.4 394.6 193.5C393.3 194.2 392.1 195 390.8 195.8C379.8 202.5 369.2 200.9 361.5 191.4C353.9 181.9 354.3 167.9 362.7 159.6C370.2 152.1 379 152.8 388 155.9C404 161.5 407 159.3 405.6 142.1C404.6 128.9 403.8 115.6 402.6 102.4C402.3 98.8 403.3 97.8 406.9 97.5C432.5 95.7 458.2 93.9 483.8 92C496.6 91.1 509.4 90.1 522.2 89.2C531.9 88.5 543.9 85 550.9 94C554.7 98.9 554.9 105.2 555.3 111.1C557.3 138.5 560.1 166.1 562.2 193.8Z" fill="#3CAFA9"/>
<path d="M508.6 238.4C508.8 234.1 510.6 230.2 512.4 226.4C516.5 217.9 516.3 209.8 511.7 201.6C508.2 195.4 503.5 191.1 496.1 190.7C491.4 190.4 486.9 191.4 482.7 193.4C488 192.3 493.6 193 498.5 195.6C507 200.1 511 208.5 509.2 218.4C508.5 222.4 506.9 226 505.4 229.7C503 235.3 504.6 239.9 508.9 241.7C508.6 240.6 508.5 239.5 508.6 238.4Z" fill="#2C8C93"/>
<path d="M565.5 234.7C564.3 221.6 563.3 208.4 562.3 195.2C561.9 199.5 561.1 203.9 558.8 207.6C556.9 210.5 554 213.1 550.9 215.1C550.3 216 549.4 216.7 547.9 217C547.5 217.1 547.2 217.1 546.8 217.2C546 217.4 545.3 217.5 544.6 217.4C536.2 216.1 528.8 215.2 521.7 210.4C518.5 208.2 515.1 206.4 511.6 205C515 209.2 520.3 213.4 523.2 217.8C526.2 222.4 522.5 228.5 520.5 233C518.9 236.4 518 239.3 519.8 242.2C533.7 241.3 547.5 240.2 561.4 239.3C564.5 239 565.8 238.1 565.5 234.7Z" fill="#3496A3"/>
<path d="M418.7 211.8C417.3 197 416.4 182.2 415.2 167.4C414.6 160.1 413.8 152.9 412.9 145.6C412.9 145.6 412.3 141.8 412.6 143.6C412.6 143.3 412.5 143 412.5 142.8C412.4 142.2 412.3 141.5 412.2 140.9C411.5 137.2 405.6 97.4 408.3 97.2C407.9 97.2 407.5 97.3 407.1 97.3C403.5 97.6 402.5 98.6 402.8 102.2C403.9 115.4 404.8 128.6 405.8 141.9C407.1 159.1 404.2 161.3 388.2 155.7C379.2 152.5 370.4 151.9 362.9 159.4C354.6 167.7 354.1 181.7 361.7 191.2C369.4 200.7 380 202.3 391 195.6C392.3 194.8 393.5 194 394.8 193.3C403.6 188.3 409.4 191.3 410.2 201.5C411.3 215.8 412.5 230 413.2 244.3C413.4 249.2 415.1 250.1 419.6 249.7C421.3 249.5 422.9 249.4 424.6 249.3C420.3 237.3 419.9 224.2 418.7 211.8Z" fill="#3496A3"/>
<path d="M573.6 96.1C575.3 101.4 577.8 106.5 581.6 110.5C580.4 109.3 580.5 104.6 580.4 102.9C580.2 100.4 580.2 97.8 580.4 95.3C580.6 92.8 581 90.2 581.6 87.8C582.2 85.5 583.9 83.1 581.9 81.6C579.3 79.8 574 80.6 572.2 83.2C570 86.6 572.5 92.6 573.6 96.1Z" fill="#4B0206"/>
<path d="M504 166.4C503.3 161 501.4 159.6 496.3 160.4C487.5 161.8 478.7 162.7 469.9 163.7C467.5 164 464 164.9 463.4 161.7C462.7 157.2 460.1 152.2 463.9 147.9C466.1 145.5 466.5 142.8 465.3 140.2C463.6 136.8 460.3 138.6 457.8 138.9C440.5 140.9 423.2 143.1 405.8 145.2C406.4 159.2 402.8 160.8 387.9 155.6C378.9 152.4 370.1 151.8 362.6 159.3C354.3 167.6 353.8 181.6 361.4 191.1C369.1 200.6 379.7 202.2 390.7 195.5C392 194.7 393.2 193.9 394.5 193.2C403.3 188.2 409.1 191.2 409.9 201.4C411 215.7 412.2 229.9 412.9 244.2C413.1 249.1 414.8 250 419.3 249.6C434 248.2 448.7 247.3 463.3 246.1C471.9 245.4 474.9 239.6 470.7 232C470.6 231.7 470.4 231.5 470.3 231.2C466.9 234.4 463.1 237.3 458.9 240C457.5 240.9 456.2 243 454.3 241.6C452.5 240.2 453.9 238.3 454.4 236.7C460 219.8 462.9 202.4 462.8 184.6C462.8 176.1 465.8 172.6 474 172.9C475.7 173 477.5 172.5 479.3 172.3C496.4 170.4 496.7 170.6 493.4 188C493.1 189.8 492.7 191.5 492.3 193.2C494.4 193.6 496.5 194.3 498.5 195.4C499.6 196 500.7 196.7 501.7 197.4C504.4 187.5 505.3 176.9 504 166.4Z" fill="#F7F238"/>
<path d="M364.4 179.3C363.7 171.7 365 160.6 370.6 154.4C367.9 155.3 365.2 156.9 362.7 159.4C354.4 167.7 353.9 181.7 361.5 191.2C364.6 195.1 368.2 197.6 372.2 198.9C367.7 193.5 365 186.7 364.4 179.3Z" fill="#F6D937"/>
<path d="M314.7 271.2C314.1 275.6 312.5 279.8 312.7 284.4C307.2 293.8 307.5 303.7 313.5 310.6C320.1 318 331 320.5 340.5 316.6C349.6 312.9 354.8 305 354.3 295.7C361.2 286 358.5 276.6 353 267.4C371 267.4 389.1 267.4 407.1 267.3C407.2 283.3 407.2 299.3 407.3 315.3C407.4 325.5 413.1 328.9 422.1 324.3C425.1 322.8 428.2 321.4 431.4 320.5C444.8 316.7 456.2 324.1 458.8 338.1C461.1 350.8 451.8 364.1 439.5 365.4C433.6 366 428.4 363.8 423.3 361.1C412.8 355.5 407.3 358.7 407.3 370.5C407.3 386.3 407.3 402.1 407.3 417.9C405.2 418 403.1 418.3 401 418.3C376.4 418.3 351.8 418.3 327.2 418.3C308.1 418.3 281.1 423.9 265.8 409.6C249.6 394.5 254.4 367.7 254.5 347.9C254.5 323.1 254.5 298.2 254.4 273.4C254.4 268.6 255.5 267 260.5 267.1C275.7 267.5 290.8 267.3 306 267.2C309.8 267.1 312.9 267.7 314.7 271.2Z" fill="#3CAFA9"/>
<path d="M276.7 407.7C259.9 395.3 261.2 371 261.2 352.4C261.2 345.3 260.7 267 261.1 267C261 267 260.8 267 260.7 267C255.7 266.9 254.5 268.4 254.6 273.3C254.7 298.1 254.7 323 254.7 347.8C254.7 367.6 249.9 394.4 266 409.5C275.5 418.3 289.4 419.6 303.1 419.2C293.7 417 284.3 413.3 276.7 407.7Z" fill="#3496A3"/>
<path d="M407.5 381.1C407.5 377.6 407.5 374 407.5 370.5C407.5 358.7 413 355.5 423.5 361.1C428.6 363.8 433.8 366 439.7 365.4C449.3 364.4 457 356.1 458.9 346.5C457.3 345.8 456.4 344.1 456.2 340.9C455.9 334 452 330.3 445 330.2C438.4 330.1 433.1 326.4 431.1 321.1C431.1 321 431 320.9 431 320.7C428 321.6 425.1 322.9 422.3 324.3C413.4 328.9 407.6 325.5 407.5 315.3C407.4 299.3 407.4 283.3 407.3 267.3C395.6 267.3 383.8 267.3 372.1 267.3C372.2 267.4 372.3 267.5 372.3 267.6C379.6 278.6 395.7 278 401.6 291.9C404 297.6 406.1 302.6 405.7 308.3C405.5 311.1 404 314.1 404.2 317.1C404.8 327.4 400.2 333.9 390.5 337.2C386 338.7 382.7 342.4 383.8 347C386 356 381.4 357.6 374.3 357.5C372.5 357.5 370.8 358.2 369 358.2C363.5 358.1 362.3 360.7 363.1 365.8C364 372.5 364.9 379.3 365.7 386L407.5 381.1Z" fill="#F7F238"/>
<path d="M214.8 229.3C211.1 235.3 206.7 240.6 200.6 244.3C193.6 231.5 191 210 194.1 196C197 183.2 204.5 175 212.4 165C217.9 158.1 224.2 151.3 228.8 143.8C234.2 135.1 236.7 125.4 238.1 115.4C238.2 114.9 238.4 114.3 238.9 114.4C239.1 114.4 239.2 114.5 239.3 114.6C239.9 115 240.4 115.5 241 115.9C241.3 116.1 241.7 116.4 241.8 116.7C242 117.1 242 117.5 242 118C242.1 121.6 240.7 126.9 242.1 130.3C243.2 132.9 247 134.9 249.5 135.5C250 135.6 250.5 135.7 250.9 136.1C251.3 136.5 251.5 137 251.6 137.5C253.5 144.8 255.4 152.1 255.4 159.6C255.4 160.8 255.3 162 254.9 163.1C254.3 164.6 252.9 165.8 251.7 166.9C246.7 171.4 242.9 176.5 239.1 182C235.6 187.1 231.9 192.2 229.4 197.9C224.5 208 220.7 219.6 214.8 229.3Z" fill="#E9442C"/>
<g opacity="0.78">
<path opacity="0.78" d="M251.8 137.4C251.7 137 251.6 136.6 251.3 136.2C251 141.3 250.9 146.3 250.1 151.3C249.1 157.6 246.6 163.1 243 168.4C239.2 174.1 234.7 179.3 230.9 184.9C227.6 189.8 225.2 193.7 219.9 196.8C217.6 198.1 214.8 198.9 212.2 198.4C207.8 197.6 205 195.1 203.8 191.1C202.7 187.6 201.6 183.9 200.9 180.2C197.9 184.9 195.5 189.9 194.1 196C191 210 193.6 231.5 200.6 244.3C206.7 240.6 211.2 235.3 214.8 229.3C220.7 219.6 224.5 208 229.5 197.8C232 192.1 235.7 187 239.2 181.9C242.9 176.4 246.8 171.3 251.8 166.8C253 165.7 254.4 164.5 255 163C255.5 161.9 255.5 160.7 255.5 159.5C255.7 152 253.8 144.6 251.8 137.4Z" fill="#CC3143"/>
</g>
<path d="M137.6 96.6C140.1 87.2 140.7 77.5 141.3 67.8C141.5 65.2 141.7 62.6 142.8 60.3C145.7 54.4 153.3 52.8 159.8 53C167.4 53.2 175.1 54.9 181.5 58.9C187.9 63 192.9 69.7 193.7 77.2C194 80.1 193.6 82.8 193.4 85.7C193.1 89.1 193.3 92.5 192.8 95.9C192.6 97.4 192.2 98.9 192.2 100.4C192.2 101.1 192.2 101.8 192 102.5C191.3 104.3 189.2 104.7 188.5 107C187.1 111.6 185.7 116.1 184.3 120.7C183.6 123.1 182.6 125.7 180.4 126.7C178.9 127.4 177.1 127.1 175.5 126.8C171.6 126 167.7 124.8 164 123.3C159.7 132.2 158.4 142.4 160.3 152.1C156.8 149.4 152.3 148.2 148 147.4C138.7 145.8 120.6 143.2 122.8 129.3C123.5 124.6 127.9 120.3 130 116.2C133.1 110 135.8 103.4 137.6 96.6Z" fill="#E9442C"/>
<g opacity="0.78">
<path opacity="0.78" d="M171.6 120.1C165.8 116.5 159.1 111.6 154.9 105.8L154.8 105.7C154.7 105.6 154.6 105.4 154.5 105.3C154.1 104.7 153.7 104.1 153.3 103.4C153.1 103 153 102.6 153 102.3C150.5 95.5 152.9 87.3 154.4 80.5C156.5 71.1 158.7 61.5 163.8 53.3C162.5 53.2 161.1 53.1 159.8 53.1C153.3 52.9 145.7 54.5 142.8 60.4C141.7 62.7 141.4 65.4 141.3 67.9C140.6 77.6 140 87.3 137.6 96.7C135.8 103.5 133.1 110.1 129.9 116.3C127.8 120.5 123.4 124.7 122.7 129.4C120.5 143.3 138.6 145.9 147.9 147.5C152.3 148.3 156.7 149.5 160.2 152.2C158.3 142.5 159.6 132.3 163.9 123.4C167.6 125 171.5 126.1 175.4 126.9C177 127.2 178.8 127.5 180.3 126.8C181.3 126.3 182.1 125.5 182.7 124.6C178.8 124.1 174.7 122 171.6 120.1Z" fill="#CC3143"/>
</g>
<path d="M112 293.5C104.2 290.3 96.6 286.8 89.2 282.7C76.9 275.9 65 267.4 56.2 256.4C56.1 256.7 56 256.9 55.8 257.2C55.2 258.4 54.7 259.8 54.9 261.1C55.1 262.2 55.8 263 56.5 263.9C58.8 266.7 61.2 269.3 63.9 271.9C79.1 286.2 100.5 296 121 297.4C118 296.1 115 294.8 112 293.5Z" fill="#2E2471"/>
<path d="M182.6 213.9C180.8 202.2 177.1 190.4 174.6 178.6C171.6 164.7 168.1 150.9 164.1 137.3C161 126.8 141.5 117.2 132 113.2C131.4 112.9 130.7 112.7 130.1 112.9C129.4 113.1 129 113.8 128.6 114.4C120.6 127.3 110.2 139.4 103.6 152.8C87.6999 185.3 73.2999 218.5 58.3999 251.5C69.5999 266.8 87.0999 277 103.9 284.8C113.1 289.1 122.5 293 131.9 296.8C132.3 297 132.8 297.1 133.2 297.3C143.1 296.5 152.9 294.1 162.3 290.7C169.8 288 186.1 283.9 186.6 274.5C187.3 262.2 188.1 250.5 186.2 238.3C185.1 230.1 183.9 222 182.6 213.9Z" fill="#2E2471"/>
<path d="M126.9 128.2C107.9 137.3 112.1 163.1 115.7 180.6C118.3 193.4 121.2 206.1 124.4 218.8C128 233.1 130.2 251.2 143.9 259.7C156.5 267.6 172.4 263 185.1 257.7C194.8 253.6 204.1 248.4 213 242.8C216.8 240.4 220.3 237.9 223.7 235.1C225.4 233.7 227.4 232.6 229 231C229.9 230.1 230.9 229 231.3 227.7C227.7 227.6 224.1 227.3 220.6 226.2C211.7 223.5 206.7 213.8 203.1 205.9C199.3 197.5 197.3 187.5 201.6 178.8C199.1 180.7 197.2 183.8 195.2 186.3C192.8 189.1 190.4 191.9 187.9 194.6C185.7 196.9 183.6 199.2 181.2 201.3C177.7 204.4 175.3 201.4 173.8 197.9C171.8 193.4 169.9 188.9 168.1 184.3C164.4 175.2 160.8 166 157.3 156.8C152 142.9 147.1 118.5 126.9 128.2Z" fill="#2D388B"/>
<path d="M192.2 264.2C195.3 269.3 196.8 275.6 197.2 281.5C197.7 287.9 192.9 290.9 188.7 294.9C185.4 298 182 301.2 178.4 304C169.6 310.8 159.4 315.1 148.2 316C142.2 316.5 136 316.2 130.1 315C124.4 313.9 120.8 311 116.1 308C115.3 307.5 115.6 301.3 115.5 300.2C115.4 297.4 115.3 294.6 115.4 291.8C115.6 281.9 115.9 272 115.7 262C115.6 258.5 115.5 254.9 116.4 251.5C118.8 242.1 128.7 234.9 136.1 229.3C144.8 222.8 158 222.7 167.1 228.1C173.7 232 174.6 240.4 178.4 246.7C181.8 252.4 186.9 257 190.9 262.3C191.4 263 191.8 263.6 192.2 264.2Z" fill="#4B0206"/>
<path d="M149.8 73.4C152.1 74.9 152.8 78 152.9 80.7C153 83.5 152.8 86.4 154.2 88.8C154.4 89.2 154.7 89.5 155.1 89.6C155.5 89.6 155.8 89.3 156.1 89C158.9 85.6 157 80.4 159.9 77C161.2 75.5 163.3 75.1 164.8 74C167.1 72.4 168.2 70.5 171.3 70.3C173.3 70.2 175.3 70.8 177.3 71.3C181.4 72.3 186.1 71.1 189.9 72C192.4 72.6 191.5 71.8 192.7 74.6C193.5 76.4 193.6 78.9 193.8 80.8C195.5 78.9 195.8 76.2 196.4 73.7C197.6 68.8 202.7 66.7 205.3 62.5C206.3 60.9 207 59.2 207 57.4C207 55.6 206.2 53.7 204.6 52.7C202 51.2 198.8 52.7 195.8 53C192.2 53.4 188.8 51.9 185.4 50.6C180.9 48.8 176.3 47.1 171.7 45.6C167.3 44.2 162.8 42.8 158.1 43C152.5 43.2 147 45.7 143.1 49.7C136.9 56.2 137.3 63.5 137.5 71.8C137.7 82.2 137.3 92.3 136 102.5C136.1 101.5 140.5 97.6 141.2 96.4C142.9 93.9 144.2 91.2 145.4 88.5C147.5 83.7 148.7 78.5 149.8 73.4Z" fill="#4B0206"/>
<path d="M366.7 249.7C378.4 248.3 390.1 247.1 401.7 245.4C403.7 245.1 407.5 246.3 406.8 241.2C404.6 225.2 403.1 209 401 193C400 185.8 394.2 183.4 387.9 187.2C385.2 188.8 382.7 190.7 379.9 192.3C370.3 197.6 361.6 196.4 354 188.8C346.6 181.6 344.7 169.6 349.4 160.8C352.7 154.7 357.6 151.2 363.9 150.3C353.7 151.5 343.5 152.8 333.4 154C330.5 154.4 327 153.4 325.4 157C323.8 160.7 326.7 162.3 328.7 164.6C332.1 168.5 332 173.8 331.4 178.3C330.8 182.8 325.6 181.1 322.4 181.7C315.4 182.9 308.4 183.7 301.3 184.3C296.7 184.7 295.5 186.2 296 191C299.5 221.2 320.5 248.2 348.7 260.1C348.6 259 348.7 257.7 349.2 256.3C350.1 253.5 351.7 252.1 353.8 251.4C353.6 251.3 353.3 251.2 353.1 251.1C331.4 241.5 316.3 225.6 308.4 203.1C305.4 194.5 306 193.8 314.9 192.6C316.9 192.3 318.9 192.1 320.9 191.9C320.9 191.9 320.9 191.9 320.9 191.8C321.2 191.8 321.4 191.7 321.7 191.7C334.9 190.1 334.6 190.2 338.5 202.6C343.3 217.8 348.2 232.9 357.2 246.4C358 247.7 359.7 249.1 359.3 250.7C361.7 250.6 364.2 250 366.7 249.7Z" fill="#F6D937"/>
<path d="M381.4 153.2C389.7 156.1 394.5 153.8 395 146.6C384.9 147.8 374.7 149.1 364.6 150.3C367.4 150 370.4 150.2 373.6 150.9C376.2 151.5 378.8 152.3 381.4 153.2Z" fill="#F6D937"/>
<path d="M614 239.9C612.3 235.5 612.5 230.4 614.4 226C602.6 226.1 590.8 226.1 579.2 227.9C575 228.6 570.7 229.4 566.4 229.7C561.6 230 556.9 229.4 552.2 229.7C549.4 229.9 546.8 228.4 544 228.3C543.9 228.3 543.8 228.3 543.7 228.3C541.7 225.6 539.2 223.4 536.6 221.2C531.7 217.1 526.5 213.3 521.1 209.8C519.3 208.7 515.2 204.1 512.7 206C512.1 206.5 511.9 207.3 511.9 208.1C511.9 210.5 513.2 212.8 514.7 214.7C516.2 216.6 520.6 220 517.6 222C515.7 223.2 513.2 223.3 511.1 223.9C505.7 225.6 501.2 227.6 505.1 233.3C507.3 236.5 510 242.5 513.6 245.4C513.7 245.6 513.7 245.8 513.8 246.1C515.3 249.4 519.4 250.4 523 250.7C552.2 253.6 581.2 241.7 610.5 243.3C612.1 243.4 614.2 243.1 614.5 241.5C614.4 241.1 614.2 240.5 614 239.9Z" fill="#F0A444"/>
<g opacity="0.45">
<path opacity="0.45" d="M509.8 224.4C505 226 501.4 228.1 505 233.5C507.2 236.7 509.9 242.7 513.5 245.6C513.6 245.8 513.6 246 513.7 246.3C515.1 249.4 518.9 250.5 522.3 250.9C521.7 250.8 519.5 245.8 518.8 245C517.8 243.9 516.7 242.8 515.7 241.6C515.4 241.3 515.1 240.9 514.9 240.5C514.5 239.6 514.7 238.5 514.6 237.5C514.4 235.8 513.1 234.5 512.2 233.2C511.2 231.8 511.1 230.7 511.1 229.1C510.9 227.4 510.3 226 509.8 224.4Z" fill="#E48430"/>
</g>
<path d="M578 80.7C575.4 85.5 575.7 91.4 576.6 96.8C578.6 108.7 582.1 120.5 584.7 132.2C584.9 133.1 585.1 133.9 585.7 134.6C586.3 135.3 587.3 135.5 588.2 135.7C593.6 136.7 599.3 135.8 604.1 133.3C603.7 133.5 605.1 145.3 605.2 146.4C605.6 150.7 605.9 152 610.2 153.8C617.2 156.7 625.7 156 632.1 151.9C633.8 150.8 635.3 150.8 637 149.9C638.9 148.9 640.2 146.9 641.2 145.1C642.1 143.6 646 137.6 645 135.8C644.7 135.2 643.9 135 643.2 134.9C637.2 133.7 635 132.3 633.9 126.5C632.9 121.2 632 115.8 631.2 110.4C630.9 108.4 630.5 106.2 630.8 104.2C631.1 102.1 632.3 101.5 633.8 100.1C636 97.8 637.2 94.7 637.2 91.5C637.1 88.9 636.1 86.2 633.9 84.8C630.8 82.8 627.2 85 625.5 87.7C626.2 86.6 623.4 81.5 622.8 80.4C621.5 78 619.8 75.7 617.9 73.8C614.6 70.5 611.1 67.9 606.4 68.2C596.7 68.6 583 71.3 578 80.7Z" fill="#F0A444"/>
<g opacity="0.45">
<path opacity="0.45" d="M645 135.7C644.7 135.1 643.9 134.9 643.2 134.8C637.2 133.6 635 132.2 633.9 126.4C632.9 121.1 632 115.7 631.2 110.3C630.9 108.3 630.5 106.1 630.8 104.1C631.1 102 632.3 101.4 633.8 100C636 97.7 637.2 94.6 637.2 91.4C637.1 88.8 636.1 86.1 633.9 84.7C630.8 82.7 627.2 84.9 625.5 87.6C626.4 86.2 623.5 80.5 622.8 79.1C621.9 77.5 620.7 76 619.5 74.7C619 74.2 616.1 72.3 616.1 71.8C616.5 77.8 616.7 84.6 612.5 88.9C621.3 98.5 625.7 118.4 614.3 128C613 129.1 611.6 130 610.1 130.8C608 132 602.1 133.5 605.8 135.6C608.7 137.2 613.5 135.8 616.7 136.4C617.9 136.6 619 137 619.9 137.8C620.4 138.3 620.8 138.9 621.1 139.5C623.4 143.8 622.7 149.5 619.5 153.2C619.7 152.9 625.5 154.8 626.4 154.6C628.3 154.3 630.5 152.9 632.1 151.9C633.8 150.8 635.3 150.8 637 149.9C638.9 148.9 640.2 146.9 641.2 145.1C642.1 143.4 646.1 137.4 645 135.7Z" fill="#E48430"/>
</g>
<path d="M579.6 268.6C579.2 273.2 578.9 277.9 578.8 282.5C582.4 280.9 586.2 279.4 590.1 278.6C595.4 277.5 600.9 277.8 606.3 278.4C612.1 279.1 617.8 280.3 623.7 280.7C629.5 281.1 635.4 280.8 641.1 279.8C652.6 277.9 663.2 273.5 673.2 267.6C678.2 264.7 683.1 261.7 687.4 257.7C688.4 256.8 689.4 255.8 690.4 254.8C684.5 229.4 682.4 204 675 178.9C670.3 163 662.2 146.8 648.3 137.4C646.4 136.2 643.3 133 641.2 133.7C640.3 134.1 638.3 138.4 637.5 139.4C631.1 146.9 620.7 150.9 611 149.2C608.2 148.7 604.7 146.6 605.6 143.9C604.7 147 599.3 150.7 597.7 154C595.6 158.4 595.2 163.3 594.5 168.3C592.7 180.1 590.9 191.8 589.1 203.6C585.5 225.3 581.4 247 579.6 268.6Z" fill="#85062E"/>
<path d="M692.4 258.1C691.6 258.9 690.8 259.7 689.9 260.4C685.6 264.2 680.6 267 675.7 269.9C666.2 275.5 656.1 279.8 645.3 281.9C633.9 284.1 623.1 283.4 611.8 281.7C606.2 280.9 600.5 280 594.8 280.6C590.8 281 586.9 282.3 583.2 283.9C586.2 284 590.4 283.5 592 283.8C604.4 286.2 616.8 288.9 629.5 288.6C641.6 288.3 652.8 285.3 664.4 282.5C671.6 280.7 677.8 276.5 684.1 272.7C686.4 271.3 691.9 269.6 693.5 267.5C695.2 265.3 691.5 259.1 692.4 258.1Z" fill="#85062E"/>
<path d="M592.4 319.2C592.6 320.6 592.7 322 592.5 323.5C592.2 326.5 591.2 329.3 590.2 332.2C589.8 333.4 589.4 334.7 589.7 335.9C590 336.9 590.7 337.8 591.4 338.6C595.8 343.4 601.7 346.5 607.5 349.2C608.9 349.8 610.5 350.3 611.7 351.2C612.7 352 613.3 352.8 614.5 353.4C617.2 354.7 620.4 355 623.3 354.4C627.4 353.5 629.2 350.7 632.5 348.7C634 347.8 635.7 347.4 637.4 347.2C641.3 346.8 647.2 346.1 651 347.4C656.7 349.5 662.2 354 667.5 356.9C668.2 357.3 669 357.7 669.8 357.6C670.3 357.5 670.8 357.3 671.3 357C675.1 354.7 679 352.5 682.8 350.2C685.2 348.8 687.9 346.7 687.8 343.7C687.7 340.5 685.1 338.6 687.5 335.3C688.4 334.1 689.7 333.2 690.6 332C693.7 328.1 692.3 322.5 690.9 317.8C688.4 309.9 685.9 301.9 683.4 294C682.9 292.6 682.5 291.1 681.6 289.8C679.6 286.8 675.8 285.5 672.7 283.5C669.1 281.2 666.4 277.9 662.9 275.5C659.2 273 654.8 271.7 650.4 271.1C646 270.5 641.5 270.6 637.1 271.2C631.9 272 626.9 273.5 621.8 274.8C619.9 275.3 618.1 275.1 616.2 275.8C614 276.6 611.9 277.6 609.9 278.8C601.8 283.4 595.2 290.1 589.4 297.3C588.4 298.5 587.4 299.8 587.2 301.4C586.9 303.1 587.5 304.7 588.2 306.3C589.8 310.4 591.8 314.7 592.4 319.2Z" fill="#370304"/>
<path d="M563.4 222.1C570.6 222.5 577.8 223 585 223.1C596.6 223.3 609.1 224.9 613.7 211.9C618.3 198.8 622.9 185.6 627.5 172.4C632.1 159.1 643.6 144.3 658.3 156.6C665.5 162.6 667.8 171.3 665.7 180.2C662.4 194.5 658.4 208.7 653.9 222.7C651.7 229.4 650.1 237.6 646.5 243.7C643.5 248.8 638.5 253.9 634.5 258.2C630.1 262.9 624.7 267.1 618.4 268.1C609.1 269.6 597.9 265.9 588.6 264.9C582.9 264.3 577.2 263.6 571.5 263C566 262.4 560.4 261.9 554.9 261.1C552 260.7 542.8 263.1 541 259.9C539.7 257.6 543.7 254.1 544.4 252.2C547.2 245 547.2 236.9 545.6 229.4C545.2 227.4 544.7 225.2 545.5 223.3C546.7 220.6 549.6 221.5 551.9 221.7C555.4 222 558.9 221.9 562.4 222.1C562.7 222.1 563 222.1 563.4 222.1Z" fill="#990A32"/>
<g opacity="0.38">
<path opacity="0.38" d="M658.2 156.6C655.7 154.5 653.3 153.2 651 152.5C657.5 159.5 657.5 170.6 655.9 179.9C653.8 192.3 648.8 204.2 643.3 215.4C639.1 224 631.8 242 621.7 245.4C620.5 245.8 619.1 245.9 617.9 246.4C616.5 246.9 615.4 248 614.6 249.2C614.1 250.1 613.8 251 613.1 251.7C612 252.7 610.3 252.6 608.7 252.7C603.4 252.8 600 256.3 595.2 257.7C590.6 259 585 258.6 580.3 258.6C567.6 258.7 555.1 257 542.4 256.5C542 256.5 541.7 256.4 541.4 256.4C540.6 257.7 540.2 258.9 540.7 259.9C542.5 263.1 551.8 260.7 554.6 261.1C560.1 261.9 565.7 262.4 571.2 263C576.9 263.6 582.6 264.3 588.3 264.9C597.6 265.9 608.8 269.6 618.1 268.1C624.4 267.1 629.8 262.8 634.2 258.2C638.3 253.9 643.2 248.7 646.2 243.7C649.8 237.7 651.4 229.4 653.6 222.7C658.2 208.7 662.1 194.5 665.4 180.2C667.6 171.3 665.3 162.7 658.2 156.6Z" fill="#85062E"/>
</g>
<path d="M630.2 66.1C626.3 56.6 615 55.6 606.2 57.8C599.9 59.4 594 62.5 588 65C584.9 66.3 581.8 67.5 578.7 68.5C577.3 69 575.8 69.4 574.4 69.4C572.3 69.3 570.4 68.3 568.3 68.3C567.8 68.3 567.4 68.3 567 68.6C566.5 68.9 566.4 69.6 566.3 70.2C564.9 81.9 576 90.6 587.1 89.2C589.9 88.8 593.3 88.1 595.9 86.7C596.7 86.3 602.1 81.5 601.6 80.7C603 82.9 604.3 85.1 606.1 87C607.6 88.7 609.4 90.3 611.5 91.1C613.7 92 615.6 91.6 617.6 93.5C618.8 94.7 619.8 96.2 620.7 97.7C622.6 100.8 624.4 103.8 626.3 106.9C627.2 106.1 628.1 105.1 628.3 103.9C628.4 103.2 628.3 102.6 628.1 101.9C627.5 98.9 626.9 95.9 626.4 92.8C626.2 91.7 626 90.7 626.2 89.6C626.7 86.6 629.9 84.7 632.9 84C633.6 80.8 633.1 77.5 632.5 74.2C631.8 71.5 631.2 68.7 630.2 66.1Z" fill="#4B0206"/>
<path d="M144.2 410.8C144.2 419.6 142.8 428.6 142.1 437.4V437.5C156.3 437.5 170.5 437.5 184.6 437.5C203.6 437.5 223.2 436.1 241.8 439.3C235.7 431.7 231.9 424.6 229 415.1C227.9 411.4 226.7 407.8 225.6 404.1C231.2 404.6 241.6 405.6 246.7 402.7C248.9 401.4 254.3 395.1 254 392.4C253.4 386.5 253.7 380.5 254.8 374.6C254.9 373.2 255 371.9 255.2 370.5C248 362.4 240.2 354.7 232 347.6C222 339.1 219.3 326.7 212.7 315.4C209.7 310.1 206.1 304.8 200.8 301.9C197.7 300.2 194.1 299.4 190.7 298.7C186.6 297.8 182.5 299.1 178.9 297C177.5 296.2 176.2 295.2 175.1 293.9C176.4 297.1 175.5 300.8 173.9 303.8C172.3 306.8 169.9 309.4 168.1 312.4C166.4 315.2 165.2 318.2 164 321.1C160.1 330.3 155.2 339 149.6 347.3C145.2 353.6 140.4 359.6 136.7 366.3C132.7 373.5 127.2 387.8 133.6 395.3C138.1 400.8 144.2 403.4 144.2 410.8Z" fill="#CA303F"/>
<g opacity="0.37">
<path opacity="0.37" d="M239.9 391.7C232.8 397.1 224.6 399.8 215.8 401C206.4 402.3 196.7 402.4 187.3 401.4C182.2 400.9 177.1 400.1 172 399.5C172.8 399.9 173.6 400.2 174.5 400.5C175.5 400.4 176.4 400.5 177.4 400.6C180.6 401 183.5 402.5 186.4 403.9C194.6 407.8 203.5 411.3 212.6 410.3C219.8 409.6 226.5 406.1 232.2 401.7C238.6 396.9 244.1 390.8 248.1 383.9C245.6 386.8 242.8 389.4 239.9 391.7Z" fill="#88062F"/>
</g>
<path d="M281.9 420.9C288.1 421.4 294.3 422.1 300.5 422.4C298.6 419.1 294.1 417.6 290.6 416.6C282.6 414.2 265.3 412.5 261 404.5C256.7 396.6 256.1 384.8 257 376.2C257.5 371.3 257.7 366.2 255.8 361.7C255.4 360.8 254.4 359.7 253.6 360.3C253.4 360.5 253.2 360.7 253.1 361C249.9 367.8 250.5 374.6 245.2 380.4C241 384.9 236.7 389.6 231 392C229 392.8 227 393.4 224.9 393.9C212.9 397.1 201.4 396.8 189.1 396.4C173.8 395.9 158.4 391.5 143.2 395.5C138.6 396.7 136.2 401 134.5 405.5C132.7 409.9 132.3 414.8 132.1 419.5C131.9 423.5 129.4 430.2 133.6 432.9C139.1 436.6 147.6 434.9 153.7 434.1C181.4 430.2 209 426.3 236.7 422.5C247.7 421 258.4 420.6 269.5 420.4C273.6 420.4 277.8 420.6 281.9 420.9Z" fill="#EFAD45"/>
<path d="M137.1 274.6C134.9 275.2 132.5 274.2 131 272.5C129.5 270.8 128.9 268.4 128.9 266.2C128.9 265.1 129.1 263.9 129.8 263C131.7 260.3 133.7 262.4 135.5 263.7C135.8 257.9 135.7 252.1 136.8 246.5C137.9 240.9 140.4 235.2 144.8 231.6C149.3 227.9 156 226.8 160.9 229.8C163 231.1 164.6 233 166.1 235C171.4 241.9 175.8 249.5 179.2 257.5C181.6 263 183.5 269.1 182.5 275C182.2 276.5 181.8 278 180.7 279.2C179.6 280.4 178 280.9 176.4 281.5C173.1 282.6 169.7 283.7 166.4 284.8C168.3 291.2 170.2 297.5 172.1 303.9C172.2 304.3 172.4 304.8 172.3 305.2C172.1 306 171.3 306.4 170.6 306.7C163.1 309.8 154.4 310.1 146.6 307.5C140.8 305.5 142.9 299 142.4 294.2C142.2 292.2 138.7 274.2 137.1 274.6Z" fill="#F0A444"/>
<g opacity="0.75">
<path opacity="0.75" d="M169.3 280.7C162.3 281.7 154 281.7 147.7 277.9C140.2 273.3 137.2 264.6 135.7 256C135.6 258.5 135.5 261 135.4 263.5C134.8 263.1 134.2 262.6 133.7 262.2C133.6 262.3 133.5 262.5 133.4 262.6C131.6 264.5 130.9 267 131.3 269.3C132.1 270.8 133.1 272.2 134.4 273.3C134.9 273.7 135.1 274.2 135.2 274.6C135.9 274.7 136.5 274.7 137.2 274.5C138.8 274.1 142.2 292.1 142.4 293.9C142.9 298.7 140.8 305.2 146.6 307.2C154.3 309.8 163 309.6 170.6 306.4C171.3 306.1 172.2 305.7 172.3 304.9C172.4 304.5 172.3 304 172.1 303.6C170.2 297.2 168.3 290.9 166.4 284.5C169.7 283.4 173.1 282.3 176.4 281.2C177.9 280.7 179.6 280.1 180.7 278.9C181.1 278.5 181.3 278.1 181.6 277.6C177.9 279.6 173.3 280.2 169.3 280.7Z" fill="#E48430"/>
</g>
<path d="M138.1 268.8C140 268.1 140.4 265.6 140.3 263.6C140.2 256.8 140.2 250.1 140.1 243.3C141.4 246.6 142.8 249.9 144.1 253.2C147.1 251.3 150.1 249.4 153.1 247.5C155.7 245.8 158.5 244.1 160.3 241.6C162.1 239.1 162.9 235.5 161.4 232.8C162.3 234.6 163.2 236.5 164.1 238.3C166.2 238.5 168.3 238.9 170.3 239.6C170.9 236.8 169.7 233.9 167.8 231.8C165.9 229.7 163.2 228.4 160.5 227.5C158.3 226.7 155.9 226.2 153.6 226.2C145.3 226.2 138.2 233.1 135.3 240.9C134.2 243.8 134.2 246.8 133 249.6C132.6 250.4 128.4 258.7 128.8 258.9C133.4 261.2 135.7 264.3 138.1 268.8Z" fill="#4B0206"/>
<path d="M178 301.8C178 303 177.8 304.2 178.1 305.3C178.4 306.4 179.1 307.3 179.6 308.3C180.3 309.8 180.5 311.6 180.5 313.2C180.7 322.4 177.3 331.3 172.3 339C167.3 346.7 160.8 353.3 154.2 359.6C144.3 369.2 141.5 378.6 143.6 392.2C143.7 392.8 143.8 393.4 144.3 393.8C144.7 394.1 145.3 394.1 145.8 394.1C148.3 394.1 150.7 393.8 153.2 393.5C154.2 393.4 155.3 393.3 156.3 393.2C157.3 393.2 158.4 393.4 159.4 393.4C158.4 393.5 157.4 393.7 156.5 393.9C154.1 394.5 151.4 395.2 149.1 396.3C146.6 397.5 144.2 399 142.5 401.3C140.2 404.5 139.6 408.6 139.4 412.6C139 420 139.8 427.5 141.7 434.7C134.7 435 127.6 434.1 121.4 431C112.6 426.7 108 418.8 106.3 409.4C103.3 393 100.2 376.2 103 359.8C105.6 344.5 113.3 326.5 125.1 316C131.1 310.6 138.4 306.4 142.8 299.7C148.1 302.9 154.6 303.9 160.6 302.5C166.2 301.2 171.8 297.7 175.3 293.3C176.1 292.4 178 301.3 178 301.8Z" fill="#CA303F"/>
<g opacity="0.37">
<path opacity="0.37" d="M247.6 377C248.8 374.7 249.5 372.2 250.1 369.7C250.4 368.4 250.9 366.9 250.4 365.7C250.2 365.2 246.6 361.9 246.6 361.9C242.5 365.7 237.5 368.5 232.1 370.1C228.9 371 225.4 371.5 222.1 370.6C218.4 369.6 215.2 367.1 212.9 364.1C210.6 361.1 208.9 357.6 207.2 354.1C203.8 347 200.4 339.9 197 332.7C199.7 341.9 202.3 351.3 204.5 360.6C206.9 370.4 210 381.6 198.6 386.6C191 389.9 181.9 388 174 387.6C168.5 387.3 162.6 386.9 157.7 384.6C156.9 384.2 156.1 383.8 155.4 383.3C155.3 383.3 155.3 383.2 155.2 383.2C154.9 383 154.6 382.8 154.3 382.6C153.9 382.3 153.6 382 153.3 381.7C148.9 377.7 147.1 371.7 145.8 366C144.5 360.2 140.6 355.2 137.7 349.9C140 360.3 141.2 371 141.2 381.6C141.2 384 141.2 386.4 141.8 388.7C141.9 389 142 389.3 142.1 389.6C142.1 389.7 142.2 389.7 142.2 389.8C142.3 390 142.4 390.2 142.5 390.5V390.6C142.8 391.1 143.1 391.5 143.5 391.9C147.1 395.7 154.5 393.9 159.7 393.8C160.5 393.8 161.2 393.9 161.9 394C169.8 394 177.6 395.3 185.4 396.3C194.1 397.3 202.9 397.4 211.6 396.6C220.3 395.8 228.8 393.7 236 388.5C239.4 386 243.3 382.8 245.9 379.5C246.6 378.7 247.2 377.9 247.6 377Z" fill="#88062F"/>
</g>
<path d="M649.7 267.7C650.2 267.8 650.6 268 651 268.2C657 270.8 662.2 276.3 663.4 282.8C664.2 287.5 663 292.3 661.6 296.9C659.7 303.3 658.2 309.1 654.2 314.6C653.7 315.3 653.2 315.9 652.9 316.6C652 318.7 652.2 322.1 652.3 324.4C652.4 327.5 652.7 330.6 653.2 333.7C654.1 339.7 655.6 345.7 657.8 351.4C658.2 352.4 658.6 353.5 658.2 354.5C657.9 355.5 656.9 356.1 656.1 356.6C652.3 358.9 647.8 361.4 643.5 362.5C638.9 363.7 633.1 362.6 628.4 362.1C627.2 362 626 361.8 625 361.2C623.1 360.1 622.3 357.9 621.6 355.9C620.9 353.7 620.4 351.4 619.5 349.3C618.8 347.5 617.2 346 616.7 344.1C616.6 343.8 616.6 343.5 616.7 343.2C616.8 342.9 617.1 342.7 617.4 342.6C621.6 340.3 630.2 338 630.9 332.6C631 332.1 631.8 322.8 631.6 322.8C627.7 322.8 624.4 323 620.8 321.2C619.1 320.4 617.5 319.6 616.6 317.9C615.4 315.7 614.9 312.8 614.4 310.3C612.4 301.9 611.6 295.2 615 287C618.1 279.6 623 274 630.5 270.8C635.7 268.8 644 266.1 649.7 267.7Z" fill="#CF3143"/>
<path d="M618 307.9C623.4 314 635 308.3 640.8 305.2C650.6 300.1 654.3 289.2 657.3 279.3C657.9 277.4 659.2 276.3 660.7 275.9C658.4 272.5 654.9 269.7 651.2 268.1C650.8 267.9 650.3 267.8 649.9 267.6C644.1 266 635.8 268.7 630.7 270.9C623.2 274.1 618.3 279.8 615.2 287.1C612.3 293.9 612.4 299.7 613.7 306.3C615 306 616.6 306.3 618 307.9Z" fill="#CF3143"/>
<g opacity="0.37">
<path opacity="0.37" d="M654.3 314.7C658.3 309.1 659.7 303.3 661.7 297C661.9 296.3 662.1 295.7 662.3 295C658.6 303.2 653.2 310.4 644.6 314.6C636.9 318.3 626.2 322.5 617.7 319.7C618.5 320.5 619.6 321 620.8 321.6C626.4 324.3 634 323.3 640.1 323.5C641.1 323.5 642.1 323.6 642.8 324.2C643.5 324.9 643.7 325.9 643.8 326.9C644 329 644.3 331.1 644.5 333.2C644.8 336 645.1 339.2 643.3 341.5C641.5 343.7 638.3 344.1 635.4 344.4C638.4 344.2 642.1 348.4 643.4 350.7C645.5 354.3 644.7 358.2 645.8 362.1C649.4 360.8 653 358.8 656.1 356.9C657 356.4 657.9 355.8 658.2 354.8C658.6 353.8 658.2 352.7 657.8 351.7C655.7 346 654.1 340.1 653.2 334C652.7 330.9 652.4 327.8 652.3 324.7C652.2 322.4 652 319.1 652.9 316.9C653.4 316 653.8 315.3 654.3 314.7Z" fill="#88062F"/>
</g>
<path d="M569.2 407.1C577.7 415.2 588.3 423.6 598.5 429.4C604.4 422.7 608.3 411.7 612.8 403.8C610.3 408.2 611.5 418.8 611.3 423.9C611.1 427.8 609 437.7 612 440.9H690.4C691.6 433.8 692.5 426.7 692.9 419.5C692.7 423 708.4 413.5 709.1 413.1C714.7 409.2 719 403.8 722.9 398.3C708.9 383.8 701.9 364 688.7 348.8C686.5 346.2 683.1 345 679.9 344.1C676.9 343.2 654 339.6 653.8 338.7C656 348 636.3 345.5 632.6 342.6C630.5 341 629.2 338.5 629 335.9C617.8 339.6 608.5 343.7 599.4 351.5C591 358.7 583.8 367.2 577.2 376C576 377.6 559.6 399.2 561.2 400.2C564.1 402 566.7 404.6 569.2 407.1Z" fill="#2F2574"/>
<path d="M694.5 414.5C694.1 414.5 693.8 414.5 693.6 414.4C692.7 414 692.2 413.1 691.7 412.2C687.5 403.6 684.7 394.4 682.1 385.2C682.4 395.1 685.1 412.9 678.9 421.2C669.9 433.2 646.4 430.9 633.3 430.8C631 430.8 628.5 430.6 626.9 429C626 428 625.5 426.7 625.1 425.4C621.1 411.6 621.5 396.6 615.1 383.5C606.5 396.9 597.9 410.6 585.6 420.8C589.8 423.9 594.2 426.8 598.4 429.2C604.3 422.5 608.2 411.5 612.7 403.6C610.2 408 611.4 418.6 611.2 423.7C611 427.6 608.9 437.5 611.9 440.7H690.3C691.5 433.6 692.4 426.5 692.8 419.3C692.6 421.7 700.2 417.9 705 415.2C703.4 416.1 700 414.4 698.3 414.3C697.8 414.3 695.8 414.5 694.5 414.5Z" fill="#2B274D"/>
<path d="M667.1 295.7C668 293.5 668.6 291.2 669.9 289.2C671.7 286.5 672.6 282.9 672.6 279.7C672.6 277.8 672.1 275.8 670.7 274.5C669 272.9 666.3 272.7 664.8 271C662.7 268.6 663.3 265.1 662.4 262.3C661.5 259.4 656.8 259.2 654.2 258.5C646.2 256.4 638.2 254.4 630.2 252.6C628 252.1 625.8 251.6 623.6 251.6C622.6 251.6 621.6 251.6 620.8 252.1C620.4 252.3 620 252.6 619.8 253C619.7 253.3 619.6 253.6 619.6 254C619.4 256.5 619.8 259 616.6 258.7C615.6 258.6 614.6 258.1 613.6 258.3C612.8 258.5 612.1 259.1 611.6 259.8C609.5 262.1 607.6 264.5 605.7 266.9C604.7 268.2 603.7 269.6 603.4 271.2C602.9 274.2 605.4 276.2 605.3 279.1C605.2 283.5 605.6 288 606.4 292.3C607.9 300.2 609.2 305.3 613.4 312.2C613.5 302.1 612.9 293.7 617.5 284.5C621.1 277.7 626 282.2 632.4 281.9C635.8 281.8 639.3 279.3 642.4 281C645.4 282.7 648.9 285.5 649.9 288.8C650.8 291.6 650.9 294.7 650.2 297.5C650 298.4 649.6 299.3 649.7 300.3C649.8 301.3 650.3 302.3 651.3 302.4C651.7 300.1 653.3 291.4 656.7 292.2C658 292.5 659.2 293.8 659.5 295.3C659.7 296.5 659.5 297.8 659.2 299.1C658.8 300.9 657.9 303.4 656.6 304.8C655.5 306 653.8 305.4 653.4 306.5C653.3 306.8 653.9 307.9 653.9 308.3C653.9 309.2 653.4 310.4 653.1 311.3C652.6 313 652.2 314.7 652.3 316.4C652.4 318.1 653.1 319.9 654.5 320.9C655.6 320 656.4 318.7 657 317.4C659 313.6 660.7 309.7 662.2 305.8C662.9 304 663.3 302 664.1 300.3C665.1 298.8 666.4 297.4 667.1 295.7Z" fill="#370304"/>
<path d="M717.8 440.8C722.4 439.1 726.8 436.6 730.6 433.7C731.9 432.7 733.2 431.6 733.6 430C734.2 427.9 733.1 425.7 731.9 423.8C728.5 418.1 725.2 412.3 721.8 406.6C721 405.3 720.5 403.9 719.1 403.2C719 403.1 712.6 409.3 711.9 409.9C709.2 412 706.4 413.9 703.5 415.7C701.7 416.8 699.9 417.8 698.2 418.8C697.3 419.3 696.4 419.3 695.5 419.7C694.9 419.9 694.3 420.5 693.6 420.4C693.8 420.8 693.9 421.4 693.7 421.8C693.6 422 693.4 422.1 693.2 422.3C691.8 423.2 690.4 423.9 688.9 424.6C685.3 426.4 681.6 427.8 677.8 429.1C670.8 431.5 663.8 433.6 656.7 435.4C653.3 436.2 649.6 437.5 646.1 437.8C644.9 437.9 643.8 437.7 642.6 437.8C640.9 438.1 639.2 438.4 637.5 438.7C636.4 438.9 632.8 439.1 631.5 440.1C631.3 440.2 631.2 440.4 631.2 440.5C631.1 440.7 631.1 440.8 631.1 441H717.8V440.8Z" fill="#CF3143"/>
<g opacity="0.37">
<path opacity="0.37" d="M657.4 437.2C673.5 434.2 688.9 428.9 704.3 423.3C706.2 414.8 713.4 409.5 719.1 403.2C718.8 403.4 712.6 409.3 711.9 409.8C709.2 411.9 706.4 413.8 703.5 415.6C701.7 416.7 699.9 417.7 698.2 418.7C697.3 419.2 696.4 419.2 695.5 419.6C694.9 419.8 694.3 420.4 693.6 420.3C693.8 420.7 693.9 421.3 693.7 421.7C693.6 421.9 693.4 422 693.2 422.2C691.8 423.1 690.4 423.8 688.9 424.5C685.3 426.3 681.6 427.7 677.8 429C670.8 431.4 663.8 433.5 656.7 435.3C653.3 436.1 649.6 437.4 646.1 437.7C644.9 437.8 643.8 437.6 642.6 437.7C640.9 438 639.2 438.3 637.5 438.6C636.4 438.8 632.8 439 631.5 440C631.3 440.1 631.2 440.3 631.2 440.4C631.1 440.6 631.1 440.7 631.1 440.9H654C654.1 439.1 655.2 437.6 657.4 437.2Z" fill="#88062F"/>
</g>
<path d="M579.8 109.1C580.5 108.9 581.1 108.5 581.6 108.1C581.8 107.9 582 107.7 582.2 107.5C582.3 107.4 582.4 107.3 582.5 107.2C582.6 107.1 582.4 107.2 582.5 107.2C582.6 107.2 582.6 107.1 582.7 107.1C582.8 107 582.9 107 583.1 106.9C583 107 583.3 106.8 583.4 106.8C583.7 106.7 584 106.7 584.4 106.7C585.4 106.7 586.3 107 587.2 107.3C588.4 107.7 588.9 105.8 587.7 105.4C585.9 104.8 583.8 104.3 582 105.2C581.4 105.5 581 105.9 580.5 106.4C580.4 106.5 580.3 106.6 580.2 106.7C580.2 106.7 580 106.9 580.1 106.8C580.2 106.7 580 106.9 580 106.9C579.9 107 579.8 107.1 579.6 107.1C579.6 107.1 579.3 107.2 579.5 107.2C579.4 107.2 579.3 107.3 579.2 107.3C578 107.6 578.6 109.4 579.8 109.1Z" fill="#4B0206"/>
<path d="M596.1 105C597.3 104.4 598.6 103.8 600 103.8C600.6 103.8 601.1 103.9 601.7 104.1C602.5 104.4 603.1 104.7 604 104.5C604.5 104.4 604.8 103.8 604.7 103.3C604.5 102.8 604 102.5 603.5 102.6C603 102.7 602.3 102.2 601.8 102C601.1 101.8 600.4 101.7 599.6 101.8C598 102 596.6 102.6 595.1 103.3C594.6 103.5 594.5 104.2 594.8 104.6C595.1 105.1 595.7 105.2 596.1 105Z" fill="#4B0206"/>
<path d="M599.1 95.6C599.3 95.5 599.6 95.5 599.8 95.4C599.9 95.4 599.9 95.4 600 95.4C599.8 95.4 600 95.4 600.1 95.4C600.2 95.4 600.3 95.4 600.5 95.4C600.7 95.4 601 95.4 601.2 95.4C601.3 95.4 601.3 95.4 601.4 95.4C601.6 95.4 601.3 95.4 601.4 95.4C601.5 95.4 601.7 95.4 601.8 95.5C602 95.6 602.3 95.6 602.5 95.7C602.6 95.7 602.8 95.8 602.7 95.8C602.8 95.8 602.9 95.9 603 96C603.2 96.1 603.5 96.2 603.7 96.4C603.8 96.4 603.8 96.5 603.8 96.5C603.8 96.5 604 96.6 603.9 96.6C603.8 96.5 604 96.7 604 96.7C604.1 96.7 604.1 96.8 604.2 96.9C604.6 97.2 605.2 97.3 605.6 96.9C605.9 96.5 606 95.9 605.6 95.5C603.7 93.8 601.1 93.2 598.7 93.9C598.2 94 597.9 94.6 598 95.1C598.1 95.4 598.6 95.7 599.1 95.6Z" fill="#4B0206"/>
<path d="M577.8 102.5C577.9 102.3 577.9 102.1 578 101.9C578 101.8 578.1 101.7 578.1 101.6C578.2 101.4 578 101.7 578.1 101.6C578.1 101.6 578.1 101.5 578.2 101.5C578.4 101.1 578.6 100.8 578.8 100.4C578.9 100.2 579 100.1 579.1 99.9L579.2 99.8C579.2 99.8 579.3 99.7 579.2 99.8C579.1 99.9 579.2 99.8 579.2 99.8L579.3 99.7C579.6 99.4 579.8 99.1 580.2 98.8C580.6 98.5 580.6 97.8 580.2 97.4C579.8 97 579.2 97 578.8 97.4C577.4 98.7 576.5 100.3 575.9 102C575.8 102.5 576.1 103.1 576.6 103.2C577.1 103.3 577.6 103 577.8 102.5Z" fill="#4B0206"/>
<path d="M158.3 259.6C158.3 259.4 158.4 259.1 158.5 258.8C158.5 258.8 158.6 258.6 158.5 258.7C158.5 258.6 158.6 258.5 158.6 258.5C158.7 258.4 158.7 258.2 158.8 258.1C158.9 257.9 158.9 258 159 257.8C159.1 257.7 159.2 257.5 159.4 257.4C159.6 257.2 159.8 257.1 160.1 256.9C160.3 256.8 160.5 256.7 160.9 256.6C161.3 256.5 161.7 256.5 162.1 256.5C163 256.5 164 256.5 164.9 256.4C165.4 256.3 165.7 255.7 165.6 255.2C165.4 254.6 164.9 254.4 164.4 254.5C163.4 254.6 162.5 254.5 161.5 254.5C160.6 254.6 159.7 254.8 158.9 255.3C157.4 256.2 156.5 257.8 156.4 259.5C156.4 260 156.9 260.5 157.4 260.5C157.9 260.6 158.2 260.2 158.3 259.6Z" fill="#4B0206"/>
<path d="M171.2 253C171.2 253.2 171.3 252.9 171.2 253C171.2 252.8 171.3 252.8 171.3 252.7C171.3 252.6 171.3 252.6 171.4 252.5C171.3 252.7 171.4 252.4 171.4 252.4C171.5 252.3 171.6 252.1 171.7 252C171.7 251.9 171.8 251.8 171.7 251.9C171.8 251.8 171.8 251.8 171.9 251.7C172 251.6 172.1 251.5 172.2 251.4C172.4 251.2 172.1 251.5 172.3 251.3C172.4 251.3 172.4 251.2 172.5 251.2C172.6 251.1 172.8 251 172.9 251C173.1 250.9 172.9 251 173 251C173.1 251 173.2 250.9 173.3 250.9C173.5 250.8 173.6 250.8 173.8 250.8C174 250.8 173.7 250.8 173.8 250.8C173.9 250.8 173.9 250.8 174 250.8C174.2 250.8 174.3 250.8 174.5 250.8C174.6 250.8 174.4 250.8 174.5 250.8C174.6 250.8 174.7 250.8 174.8 250.9C175.6 251.1 176.3 251.7 177.2 251.6C177.7 251.5 178.2 251.2 178.2 250.6C178.2 250.1 177.8 249.6 177.2 249.6C177.1 249.6 177 249.6 176.9 249.6C177 249.6 176.7 249.5 176.7 249.5C176.5 249.4 176.4 249.4 176.2 249.3C175.8 249.1 175.4 248.9 174.9 248.9C174.1 248.8 173.2 248.9 172.4 249.2C170.7 249.9 169.5 251.3 169.3 253.1C169.2 253.6 169.8 254.1 170.3 254.1C170.9 254 171.2 253.5 171.2 253Z" fill="#4B0206"/>
<path d="M153.9 258.2C153.9 258.1 153.9 258.1 153.9 258C153.9 258.1 153.9 258 153.9 257.9C153.9 257.7 154 257.6 154 257.4C154.1 257.1 154.1 256.9 154.2 256.6C154.3 256.3 154.4 256 154.5 255.8C154.6 255.5 154.6 255.4 154.8 255.1C155.3 254 155.9 253.2 156.8 252.4C157.2 252 157.2 251.4 156.8 251C156.4 250.6 155.8 250.6 155.4 251C153.4 252.9 152.3 255.4 152 258.1C151.9 258.6 152.5 259.1 153 259.1C153.5 259.2 153.9 258.8 153.9 258.2Z" fill="#4B0206"/>
<path d="M170.9 246.2C171.1 246.3 171.3 246.3 171.5 246.4C171.6 246.4 171.7 246.5 171.8 246.5H171.9H171.8C171.8 246.5 171.9 246.5 171.9 246.6C172.3 246.8 172.7 247 173.1 247.3C173.3 247.4 173.5 247.6 173.6 247.7C173.7 247.8 173.5 247.6 173.6 247.7L173.7 247.8C173.8 247.9 173.9 247.9 174 248C174.3 248.3 174.7 248.6 174.9 249C175.2 249.4 175.9 249.4 176.3 249C176.7 248.6 176.6 248 176.3 247.6C175 246.1 173.2 244.9 171.3 244.4C170.8 244.3 170.2 244.6 170.1 245.1C170.1 245.5 170.3 246.1 170.9 246.2Z" fill="#4B0206"/>
<g opacity="0.75">
<path opacity="0.75" d="M170.2 263.4C170.1 263.4 169.9 263.4 169.9 263.2C169.9 263.1 169.9 263.1 170 263C170.5 262.2 170.8 260.5 171.8 260.2C172.8 259.8 174.2 260.3 175.2 260.6C174.9 261.7 173.7 261.7 172.9 262.3C172 263 171.4 263.5 170.2 263.4Z" fill="#E48430"/>
</g>
<path d="M176.8 95C178.7 93.9 181 93.5 183 94.2C183.2 94.3 183.3 94.3 183.5 94.4C183.6 94.5 183.7 94.5 183.9 94.6C183.9 94.6 184.1 94.7 184 94.7C184.4 95 184.4 95.1 184.7 95.6C185.4 96.7 186.3 97.6 187.6 97.5C189.5 97.5 189.5 94.5 187.6 94.6C187.2 94.6 187.6 94.6 187.6 94.6C187.7 94.6 187.7 94.6 187.5 94.6C187.5 94.6 187.6 94.6 187.6 94.7C187.6 94.7 187.4 94.4 187.4 94.5C187.5 94.6 187.3 94.3 187.3 94.3C187 93.8 186.7 93.4 186.3 93C185.5 92.1 184.2 91.5 183.1 91.2C180.4 90.5 177.7 91.1 175.3 92.5C173.7 93.4 175.2 95.9 176.8 95Z" fill="#4B0206"/>
<path d="M174.1 87C174.4 86.8 174.7 86.6 175.1 86.5C175.2 86.5 175.3 86.4 175.4 86.4C175.3 86.5 175.3 86.4 175.4 86.4C175.5 86.3 175.7 86.3 175.8 86.2C176.5 85.9 177.3 85.8 178.1 85.6C178.2 85.6 178.2 85.6 178.1 85.6C178.2 85.6 178.3 85.6 178.4 85.6C178.6 85.6 178.8 85.6 179 85.6C179.4 85.6 179.8 85.6 180.2 85.6C180.6 85.6 181 85.6 181.4 85.7C181.6 85.7 181.6 85.7 181.5 85.7C181.6 85.7 181.7 85.7 181.8 85.8C182 85.8 182.2 85.9 182.4 85.9C183.1 86.1 184 85.7 184.2 84.9C184.4 84.2 184 83.3 183.2 83.1C179.7 82.4 175.7 82.6 172.6 84.6C171.9 85 171.7 85.9 172.1 86.6C172.5 87.2 173.4 87.5 174.1 87Z" fill="#4B0206"/>
<path d="M614.7 296.3C614.8 296.2 614.8 296.2 614.9 296.1C615 296 614.9 296.1 614.9 296.1C615 296 615.1 296 615.2 295.9C615.3 295.8 615 295.9 615.2 295.9C615.3 295.9 615.3 295.9 615.4 295.8C615.5 295.8 615.5 295.8 615.6 295.8C615.8 295.7 615.4 295.8 615.6 295.8C615.7 295.8 615.9 295.8 616 295.8C616 295.8 616.2 295.8 616.1 295.8C616 295.8 616.2 295.8 616.2 295.8C616.3 295.8 616.4 295.9 616.6 295.9C616.8 296 616.4 295.8 616.7 295.9C616.8 295.9 616.8 296 616.9 296C617 296.1 617.1 296.1 617.2 296.2C617.3 296.3 617.1 296.1 617.2 296.2L617.3 296.3C617.4 296.4 617.5 296.5 617.6 296.6C617.6 296.6 617.8 296.8 617.7 296.7C617.6 296.6 617.8 296.8 617.8 296.8C618 297 618.1 297.3 618.3 297.5C618.8 297.9 619.4 298 619.9 297.5C620.3 297.1 620.3 296.5 619.9 296.1C619.5 295.7 618.9 295.7 618.5 296.1C618.6 296 618.8 295.9 618.9 295.8C619.5 296.1 619.8 296.1 619.6 296C619.5 295.9 619.6 296 619.7 296.1C619.7 296.1 619.6 296 619.6 295.9C619.5 295.8 619.5 295.7 619.4 295.6C619.2 295.3 619 295.1 618.7 294.8C618.2 294.3 617.6 294 617 293.8C615.8 293.4 614.3 293.7 613.4 294.7C613.1 295.1 613 295.7 613.4 296.1C613.7 296.7 614.4 296.7 614.7 296.3Z" fill="#4B0206"/>
<path d="M628.2 298.1C628.3 298 628.3 298 628.4 297.9C628.4 297.9 628.6 297.8 628.5 297.8C628.6 297.7 628.8 297.6 628.9 297.6C628.7 297.7 629 297.6 629 297.6C629.1 297.6 629.1 297.6 629.2 297.5C629.2 297.5 629.5 297.4 629.3 297.5C629.4 297.5 629.4 297.5 629.5 297.5C629.6 297.5 629.7 297.5 629.8 297.5C629.9 297.5 629.9 297.5 629.8 297.5C630 297.5 630.1 297.6 630.3 297.6C630.6 297.7 630.2 297.5 630.4 297.7C630.5 297.7 630.5 297.8 630.6 297.8C630.8 297.9 630.9 298 631.1 298.1C631.8 298.5 632.6 298.8 633.4 298.5C634.2 298.2 634.9 297.6 635.1 296.8C635.3 296.3 634.9 295.7 634.4 295.6C633.9 295.5 633.4 295.8 633.2 296.3C633.1 296.5 633.2 296.3 633.2 296.4C633.2 296.4 633.1 296.6 633.2 296.5L633.1 296.6C633.2 296.5 633.1 296.6 633 296.6C632.9 296.6 632.8 296.7 632.9 296.6C632.9 296.6 632.6 296.7 632.8 296.6C632.9 296.6 632.7 296.6 632.7 296.6C632.6 296.6 632.6 296.6 632.7 296.6L632.5 296.5C632.6 296.5 632.4 296.4 632.3 296.4C632.1 296.3 632 296.2 631.8 296.1C631.5 295.9 631.2 295.7 630.8 295.6C629.4 295.1 627.8 295.5 626.8 296.6C626.4 297 626.4 297.6 626.8 298C627.2 298.5 627.8 298.5 628.2 298.1Z" fill="#4B0206"/>
<path d="M632.5 292.1C633.3 293.9 635 295.2 636.9 295.8C637.4 295.9 638 295.6 638.1 295.1C638.2 294.6 637.9 294.1 637.4 293.9C637.2 293.8 637 293.8 636.8 293.7C636.6 293.6 637 293.8 636.8 293.7C636.8 293.7 636.7 293.7 636.7 293.6C636.6 293.6 636.5 293.5 636.4 293.5C636.2 293.4 636.1 293.3 635.9 293.2C635.8 293.1 635.7 293.1 635.6 293C635.7 293 635.8 293.1 635.6 293L635.5 292.9C635.2 292.6 634.9 292.3 634.6 292C634.7 292.1 634.7 292.2 634.6 292L634.5 291.9C634.4 291.8 634.4 291.7 634.3 291.6C634.2 291.4 634.1 291.2 634 291C633.8 290.5 633.1 290.4 632.7 290.7C632.4 291 632.3 291.6 632.5 292.1Z" fill="#4B0206"/>
<path d="M612.5 293.7C614.7 293.3 616.7 292.1 618.2 290.5C618.5 290.1 618.6 289.5 618.2 289.1C617.8 288.8 617.2 288.7 616.8 289.1C616.5 289.5 616.1 289.8 615.7 290.1C615.7 290.1 615.5 290.2 615.6 290.2C615.7 290.1 615.5 290.3 615.5 290.3C615.4 290.4 615.3 290.4 615.2 290.5C615 290.6 614.8 290.8 614.5 290.9C614.3 291 614.1 291.1 613.9 291.2C613.8 291.2 613.8 291.2 613.7 291.3C613.7 291.3 613.5 291.4 613.7 291.3C613.6 291.3 613.5 291.4 613.4 291.4C612.9 291.6 612.4 291.7 611.9 291.8C611.4 291.9 611.1 292.5 611.2 293C611.5 293.6 612 293.8 612.5 293.7Z" fill="#4B0206"/>
<path d="M51.8 248.1C51.6 248.6 53.6 251.7 53.5 252.8C53.4 254.3 52.5 255.7 52.1 257.1C51.2 256.5 50.3 255.9 49.5 255.3C49.9 252.7 50.8 250.5 51.8 248.1Z" fill="#2E2471"/>
<path d="M569.6 83.4C572.1 86.8 576.2 88.2 579.9 90C580.3 90.2 580.7 89.5 580.3 89.3C576.8 87.6 572.7 86.3 570.3 83C569.9 82.6 569.3 83 569.6 83.4Z" fill="#E4852E"/>
<path d="M606.6 78.7C606.5 82.4 610.4 84.4 613.4 85.3C615.2 85.8 617.1 86.2 618.8 87.1C619.7 87.6 620.5 88.2 621.1 89C621.8 89.8 622.2 90.8 622.7 91.8C623.9 94.3 625.1 96.8 626.3 99.3C626.5 99.8 627.2 99.4 627 98.9C625.9 96.7 624.9 94.5 623.8 92.4C622.9 90.6 622.1 88.7 620.5 87.4C617.6 85.1 613.6 85.2 610.4 83.3C608.8 82.3 607.3 80.8 607.3 78.8C607.4 78.2 606.6 78.2 606.6 78.7Z" fill="#E4852E"/>
<path d="M198.5 66.1C202.6 63.6 205.2 58.9 205.3 54.1C205.4 52.7 205.2 51.4 204.8 50C204.7 49.5 203.9 49.7 204 50.2C205.5 55.9 203 62.3 198 65.3C197.7 65.7 198.1 66.3 198.5 66.1Z" fill="#E4852E"/>
<path d="M143.2 243.2C144.7 245.6 145.3 248.3 146 251C146.1 251.5 146.9 251.3 146.8 250.8C146.2 248 145.5 245.3 143.9 242.8C143.6 242.4 142.9 242.8 143.2 243.2Z" fill="#E4852E"/>
<path d="M144.1 299.5C148.6 300.5 153.3 301.2 158 300.7C162.7 300.2 167.2 298.5 170.6 295.2C171.5 294.3 172.4 293.2 173.7 292.8C174.9 292.4 176.7 293 176.8 294.3C176.9 294.9 176.5 295.5 176.2 296.1C173.7 300.2 169.5 303 165 304.6C160.5 306.2 155.7 306.6 150.9 306.7C147.9 306.8 142.7 306.8 140.5 304.2C137.8 301.2 140.8 298.7 144.1 299.5Z" fill="#B51D33"/>
<g opacity="0.45">
<path opacity="0.45" d="M176.6 263.7C173.7 265.7 170.5 267.4 167.3 268.9C168.6 270.3 170.5 271.2 172.4 271.2C174.3 271.2 176.1 270.4 177.4 269C177.4 266.9 177.9 265.3 176.6 263.7Z" fill="#D44A33"/>
</g>
<g opacity="0.37">
<path opacity="0.37" d="M185.5 109.8C184 109.7 182.5 109.3 181 108.9C180.2 108.7 176.2 108.3 175.8 107.6C176.9 109.2 175.8 111 177.4 112.5C178.3 113.3 179.4 113.8 180.5 114.2C181.4 114.6 182.4 115 183.3 115.3C184.3 113.6 185.4 111.7 185.8 109.8C185.7 109.9 185.6 109.9 185.5 109.8Z" fill="#88062F"/>
</g>
<g opacity="0.37">
<path opacity="0.37" d="M628.7 307.3C627.2 312.8 618.8 317.9 616.5 310.2C616.3 309.5 616.1 308.8 615.9 308C615.8 307.6 615.7 307 616.1 306.8C616.3 306.7 616.4 306.7 616.6 306.7C620.2 306.7 625.2 308.4 628.7 307.3Z" fill="#88062F"/>
</g>
<g opacity="0.45">
<path opacity="0.45" d="M600.3 121.3C600.3 120.4 600 119.4 599.8 118.5C599.8 118.4 599.7 118.2 599.6 118.2C599.4 118 599.1 118.2 598.9 118.3C595.1 120.5 591.2 121.1 586.9 121.5C587.9 123.2 589.1 125.7 591.1 126.4C592.2 126.8 593.5 126.6 594.7 126.4C597.5 126 600.3 124.5 600.3 121.3Z" fill="#D44A33"/>
</g>
<path d="M141.1 412.1C141.6 408 143.6 404 146.6 401.2C150 398 154.5 396.2 157.9 393C156.5 391.1 153.6 391.3 151.3 392.2C145 394.5 139.9 399.9 137.9 406.3C135.4 414 137.9 421.7 138.6 429.4C138.8 431.1 138.1 433.8 139.4 435.1C143.8 439.7 143.2 430.7 143 428.8C142.3 423.3 140.4 417.8 141.1 412.1Z" fill="#B51D33"/>
<path d="M639 270.4C646.8 272.4 652.6 278.4 654.8 286C656.8 281.1 651.7 272.9 648.5 269.4C644.5 265.2 638.9 263.1 633.1 263.9C630.3 264.3 620 267.6 622.2 271.8C628 270.6 632.9 268.9 639 270.4Z" fill="#2B274D"/>
<g opacity="0.45">
<path opacity="0.45" d="M590.5 118.1C590.9 117.3 591.2 116.5 591.6 115.7C591.7 115.6 591.7 115.4 591.9 115.4C592 115.3 592.2 115.4 592.3 115.4C593 115.5 593.7 115.7 594.5 115.8C594.7 115.8 594.9 115.9 594.9 116C595 116.2 594.8 116.4 594.6 116.5C593.5 117.2 592.2 117.7 590.9 117.9" fill="#D44A33"/>
</g>
<g opacity="0.65">
<g opacity="0.65">
<path opacity="0.65" d="M166.2 270.4C170.4 269 174.3 266.6 177.4 263.4C178.1 262.7 177 261.6 176.3 262.3C173.4 265.3 169.7 267.6 165.8 268.9C164.9 269.2 165.3 270.7 166.2 270.4Z" fill="#B51D33"/>
</g>
</g>
<g opacity="0.65">
<g opacity="0.65">
<path opacity="0.65" d="M165.4 270.4C166.2 270.6 167.1 270.5 167.8 270.1C168.1 269.9 168.3 269.5 168.2 269.2C168.1 268.9 167.8 268.6 167.4 268.6C166.7 268.6 165.9 268.5 165.2 268.5C164.8 268.5 164.5 268.8 164.4 269.2C164.3 269.6 164.6 269.9 165 270.1C165.8 270.4 166.6 270.4 167.4 270.1C167.8 270 168.1 269.5 167.9 269.1C167.8 268.7 167.4 268.4 166.9 268.6C166.7 268.6 166.6 268.7 166.4 268.7C166.5 268.7 166.5 268.7 166.6 268.7C166.3 268.7 166 268.7 165.7 268.7C165.8 268.7 165.8 268.7 165.9 268.7C165.7 268.7 165.5 268.6 165.3 268.6C165.2 269.1 165.2 269.6 165.1 270.1C165.8 270.1 166.6 270.2 167.3 270.2C167.2 269.7 167 269.2 166.9 268.7C166.8 268.7 166.8 268.8 166.7 268.8C166.8 268.8 166.8 268.7 166.9 268.7C166.7 268.8 166.5 268.8 166.3 268.9C166.4 268.9 166.4 268.9 166.5 268.9C166.3 268.9 166.1 268.9 165.8 268.9C165.9 268.9 165.9 268.9 166 268.9C165.9 268.9 165.8 268.9 165.7 268.8C165.3 268.7 164.8 268.9 164.7 269.3C164.8 269.9 165 270.3 165.4 270.4Z" fill="#B51D33"/>
</g>
</g>
<g opacity="0.65">
<g opacity="0.65">
<path opacity="0.65" d="M178.2 263.8C178.5 263.4 178.6 262.8 178.7 262.3C178.7 262.2 178.7 262.2 178.7 262.1C178.7 262 178.6 261.9 178.6 261.8C178.5 261.7 178.4 261.6 178.2 261.5C178.1 261.5 177.9 261.5 177.8 261.5C177.6 261.5 177.4 261.7 177.3 261.9C177.2 262.2 177 262.6 176.9 262.9C177.4 263.1 177.8 263.3 178.3 263.5C178.4 263.2 178.5 262.9 178.6 262.6C178.6 262.7 178.5 262.7 178.5 262.8C178.6 262.6 178.7 262.3 178.8 262.1C178.3 261.9 177.9 261.7 177.4 261.5C177.4 261.7 177.3 261.8 177.2 261.9C177.2 261.8 177.3 261.8 177.3 261.7C177.2 262 177 262.3 176.8 262.6C176.7 262.8 176.7 263 176.7 263.2C176.7 263.4 176.9 263.6 177.1 263.7C177.3 263.8 177.5 263.8 177.7 263.8C177.8 263.8 177.8 263.7 177.9 263.7C178 263.6 178.1 263.5 178.2 263.4C178.5 263 178.8 262.4 178.9 261.9C179 261.5 178.8 261.1 178.4 261C178.1 260.9 177.6 261 177.4 261.3C177.1 261.9 176.8 262.5 176.7 263.1C176.6 263.5 176.8 263.9 177.2 264C177.4 264.1 177.5 264.1 177.7 264C177.9 264.1 178.1 264 178.2 263.8C178.3 263.4 178.4 263.1 178.6 262.7C178.1 262.6 177.6 262.4 177.1 262.3V262.4C177.1 262.3 177.1 262.3 177.1 262.2C177.1 262.4 177 262.6 176.9 262.8C176.9 262.7 177 262.7 177 262.6C176.9 262.7 176.9 262.9 176.8 263C176.7 263.2 176.7 263.4 176.7 263.6C176.7 263.8 176.9 264 177.1 264.1C177.5 264.3 178 264.2 178.2 263.8Z" fill="#B51D33"/>
</g>
</g>
</svg>
